<?xml version="1.0" encoding="utf-8"?>
<!-- Generator: Adobe Illustrator 19.2.1, SVG Export Plug-In . SVG Version: 6.00 Build 0)  -->
<svg version="1.1" id="Layer_1" xmlns="http://www.w3.org/2000/svg" xmlns:xlink="http://www.w3.org/1999/xlink" x="0px" y="0px"
	 viewBox="0 0 1219.7 919.7" style="enable-background:new 0 0 1219.7 919.7;" xml:space="preserve">
<style type="text/css">
	.st0{fill:#FFF200;}
	.st1{enable-background:new    ;}
</style>
<title>logos-cover</title>
<rect x="0.5" y="0.5" class="st0" width="1218.7" height="918.7"/>
<g class="st1">
	<path d="M496.4,483.6v15h-47.9v-88.7h18.2v73.7H496.4z"/>
</g>
<g class="st1">
	<path d="M568.1,468.5c0,18.1-14.8,32.3-33.7,32.3c-19.4,0-33.4-13.7-33.4-32.9c0-19.6,13.7-33,33.7-33
		C554.1,434.9,568.1,449.1,568.1,468.5z M518,467.9c0,10.6,6.7,17.8,16.5,17.8c9.7,0,16.5-7.3,16.5-17.6c0-11.2-6.3-18.1-16.4-18.1
		C524.7,450.1,518,457.2,518,467.9z"/>
</g>
<g class="st1">
	<path d="M627.5,437.1h16.6v57.1c0,12.6-2.4,20-8.2,25.7c-6,6-15,9.3-25.5,9.3c-12,0-21.8-4-30.2-12.2l10.5-10.6
		c5.5,5.9,11.3,8.5,19,8.5c11.3,0,17.8-6.7,17.8-18.2v-6.3c-5.6,7.1-12.8,10.5-21.7,10.5c-16.9,0-29.1-13.7-29.1-32.5
		c0-20,12.4-33.4,30.9-33.4c8.6,0,14.6,2.9,20,9.7V437.1z M594.7,467.5c0,10.6,6.9,18.2,16.6,18.2c4.9,0,9.7-2.1,12.8-5.7
		c2-2.4,3.2-6.3,3.2-10.9c0-6.7-1.5-11.2-4.5-14.4c-3.1-2.9-7.3-4.8-11.6-4.8C601.5,450,594.7,457.3,594.7,467.5z"/>
</g>
<g class="st1">
	<path d="M720.7,468.5c0,18.1-14.8,32.3-33.7,32.3c-19.4,0-33.4-13.7-33.4-32.9c0-19.6,13.7-33,33.7-33
		C706.7,434.9,720.7,449.1,720.7,468.5z M670.6,467.9c0,10.6,6.7,17.8,16.5,17.8c9.7,0,16.5-7.3,16.5-17.6
		c0-11.2-6.3-18.1-16.4-18.1C677.3,450.1,670.6,457.2,670.6,467.9z"/>
	<path d="M759.5,454.9v-1.1c0-3.7-3.3-6.4-7.8-6.4c-4.1,0-6.8,2.3-6.8,5.6c0,1.6,0.7,3.2,1.7,4c1.9,1.5,2,1.5,10.5,4.1
		c13.8,4.3,19.3,9.7,19.3,19.7c0,12-9.6,20-24,20c-14.6,0-23.6-7.5-24.2-20.2h16.2c0.8,5.3,3.2,7.7,8.1,7.7c4,0,6.8-2.4,6.8-5.9
		c0-3.7-2.4-5.5-11.4-8.2c-13.3-4-19.3-10-19.3-19.7c0-11.7,9.4-19.6,23.8-19.6c14.1,0,22.6,7.5,23,20H759.5z"/>
</g>
</svg>
