<?xml version="1.0" encoding="utf-8"?>
<!-- Generator: Adobe Illustrator 17.1.0, SVG Export Plug-In . SVG Version: 6.00 Build 0)  -->
<!DOCTYPE svg PUBLIC "-//W3C//DTD SVG 1.1//EN" "http://www.w3.org/Graphics/SVG/1.1/DTD/svg11.dtd">
<svg version="1.1" id="Layer_1" xmlns="http://www.w3.org/2000/svg" xmlns:xlink="http://www.w3.org/1999/xlink" x="0px" y="0px"
	 viewBox="0 0 482.3 136.1" enable-background="new 0 0 482.3 136.1" xml:space="preserve">
<linearGradient id="SVGID_1_" gradientUnits="userSpaceOnUse" x1="359.6484" y1="97.7402" x2="420.0523" y2="37.3364">
	<stop  offset="0" style="stop-color:#00925F"/>
	<stop  offset="1" style="stop-color:#00A779"/>
</linearGradient>
<path fill="url(#SVGID_1_)" d="M295.7,117.6l0.4,0.4c24.1,24.1,63.2,24.1,87.4,0l98.8-98.8l-0.4-0.4c-24.1-24.1-63.2-24.1-87.4,0
	L295.7,117.6z"/>
<path fill="#00815D" d="M0.4,119L0,118.5l44.1-44.1l44.1,44.1l-0.4,0.4C63.7,143.1,24.6,143.1,0.4,119z"/>
<path fill="#00815D" d="M295.3,18.6L339.6,63l44.3-44.3l-0.4-0.4c-24.2-24.2-63.5-24.2-87.8,0L295.3,18.6z"/>
<path fill="#00A779" d="M186.1,117.6l-0.4,0.4c-24.1,24.1-63.2,24.1-87.4,0L-0.4,19.2L0,18.8c24.1-24.1,63.2-24.1,87.4,0
	L186.1,117.6z"/>
<path fill="#00815D" d="M284.9,117.6l-0.4,0.4c-24.1,24.1-63.2,24.1-87.4,0L98.4,19.2l0.4-0.4c24.1-24.1,63.2-24.1,87.4,0
	L284.9,117.6z"/>
<path fill="#00A779" d="M383.7,117.6l-0.4,0.4c-24.1,24.1-63.2,24.1-87.4,0l-0.4-0.4l-98.3-98.3l0.4-0.4c24.1-24.1,63.2-24.1,87.4,0
	l54.7,54.6L383.7,117.6z"/>
</svg>
